<?xml version="1.0" encoding="UTF-8" standalone="no"?>
<!-- Created with Inkscape (http://www.inkscape.org/) -->

<svg
   width="56.761395mm"
   height="22.318363mm"
   viewBox="0 0 56.761395 22.318363"
   version="1.1"
   id="svg1"
   xmlns="http://www.w3.org/2000/svg"
   xmlns:svg="http://www.w3.org/2000/svg">
  <defs
     id="defs1">
    <rect
       x="129.51968"
       y="552.99274"
       width="326.61487"
       height="220.7466"
       id="rect22" />
    <rect
       x="317.28979"
       y="704.85883"
       width="239.77602"
       height="227.37381"
       id="rect3" />
    <rect
       x="114.72042"
       y="383.43491"
       width="507.457"
       height="235.64194"
       id="rect1" />
    <rect
       x="317.28979"
       y="704.85883"
       width="239.77602"
       height="227.37381"
       id="rect4" />
    <rect
       x="317.28979"
       y="704.85883"
       width="239.77602"
       height="227.37381"
       id="rect5" />
    <rect
       x="317.28979"
       y="704.85883"
       width="239.77602"
       height="227.37381"
       id="rect6" />
    <rect
       x="317.28979"
       y="704.85883"
       width="239.77602"
       height="227.37381"
       id="rect41" />
    <rect
       x="317.28979"
       y="704.85883"
       width="239.77602"
       height="227.37381"
       id="rect42" />
    <rect
       x="317.28979"
       y="704.85883"
       width="239.77602"
       height="227.37381"
       id="rect43" />
    <rect
       x="317.28979"
       y="704.85883"
       width="239.77602"
       height="227.37381"
       id="rect44" />
    <rect
       x="317.28979"
       y="704.85883"
       width="239.77602"
       height="227.37381"
       id="rect67" />
    <rect
       x="317.28979"
       y="704.85883"
       width="239.77602"
       height="227.37381"
       id="rect68" />
    <rect
       x="317.28979"
       y="704.85883"
       width="239.77602"
       height="227.37381"
       id="rect69" />
    <rect
       x="317.28979"
       y="704.85883"
       width="239.77602"
       height="227.37381"
       id="rect70" />
    <rect
       x="317.28979"
       y="704.85883"
       width="239.77602"
       height="227.37381"
       id="rect171" />
    <rect
       x="317.28979"
       y="704.85883"
       width="239.77602"
       height="227.37381"
       id="rect172" />
    <rect
       x="317.28979"
       y="704.85883"
       width="239.77602"
       height="227.37381"
       id="rect173" />
    <rect
       x="317.28979"
       y="704.85883"
       width="239.77602"
       height="227.37381"
       id="rect174" />
    <rect
       x="317.28979"
       y="704.85883"
       width="239.77602"
       height="227.37381"
       id="rect261" />
    <rect
       x="317.28979"
       y="704.85883"
       width="239.77602"
       height="227.37381"
       id="rect262" />
    <rect
       x="317.28979"
       y="704.85883"
       width="239.77602"
       height="227.37381"
       id="rect263" />
    <rect
       x="317.28979"
       y="704.85883"
       width="239.77602"
       height="227.37381"
       id="rect264" />
    <rect
       x="317.28979"
       y="704.85883"
       width="239.77602"
       height="227.37381"
       id="rect305" />
    <rect
       x="317.28979"
       y="704.85883"
       width="239.77602"
       height="227.37381"
       id="rect306" />
    <rect
       x="317.28979"
       y="704.85883"
       width="239.77602"
       height="227.37381"
       id="rect307" />
    <rect
       x="317.28979"
       y="704.85883"
       width="239.77602"
       height="227.37381"
       id="rect308" />
    <rect
       x="317.28979"
       y="704.85883"
       width="239.77602"
       height="227.37381"
       id="rect331" />
    <rect
       x="317.28979"
       y="704.85883"
       width="239.77602"
       height="227.37381"
       id="rect332" />
    <rect
       x="317.28979"
       y="704.85883"
       width="239.77602"
       height="227.37381"
       id="rect333" />
    <rect
       x="317.28979"
       y="704.85883"
       width="239.77602"
       height="227.37381"
       id="rect334" />
    <rect
       x="317.28979"
       y="704.85883"
       width="239.77602"
       height="227.37381"
       id="rect55" />
    <rect
       x="317.28979"
       y="704.85883"
       width="239.77602"
       height="227.37381"
       id="rect56" />
    <rect
       x="317.28979"
       y="704.85883"
       width="239.77602"
       height="227.37381"
       id="rect57" />
    <rect
       x="317.28979"
       y="704.85883"
       width="239.77602"
       height="227.37381"
       id="rect58" />
  </defs>
  <g
     id="layer1"
     transform="translate(-18.218526,-215.63352)">
    <path
       id="path62"
       style="fill:#ffffff;fill-rule:evenodd;stroke:none;stroke-width:0.365443"
       d="m 31.071759,215.92064 c -0.223096,-0.004 -0.446634,0.006 -0.669675,0.0261 -1.784329,0.16581 -3.542767,1.10888 -4.862531,2.90047 a 0.23612948,0.23612948 0 0 0 0.05133,0.32975 0.23612948,0.23612948 0 0 0 0.32927,-0.0494 c 2.369302,-3.21635 6.100578,-3.51368 8.762434,-1.42844 -0.329262,0.28377 -0.745213,0.47281 -1.212486,0.52731 l 3.94542,1.65264 -1.962541,-3.80063 c -0.01836,0.48117 -0.180525,0.91992 -0.446935,1.27494 -1.168039,-0.92188 -2.543476,-1.41156 -3.934283,-1.4328 z m 14.306263,0 c -0.223097,-0.004 -0.446634,0.006 -0.669675,0.0261 -1.78433,0.16581 -3.542767,1.10888 -4.862531,2.90047 a 0.23612948,0.23612948 0 0 0 0.05133,0.32975 0.23612948,0.23612948 0 0 0 0.329269,-0.0494 c 2.369303,-3.21635 6.100579,-3.51368 8.762434,-1.42844 -0.329262,0.28377 -0.745212,0.47281 -1.212485,0.52731 l 3.94542,1.65264 -1.962542,-3.80063 c -0.01836,0.48117 -0.180524,0.91992 -0.446935,1.27494 -1.168039,-0.92188 -2.543476,-1.41156 -3.934282,-1.4328 z m 13.737305,0 c -0.223097,-0.004 -0.446635,0.006 -0.669676,0.0261 -1.784329,0.16581 -3.542766,1.10888 -4.862531,2.90047 a 0.23612948,0.23612948 0 0 0 0.05133,0.32975 0.23612948,0.23612948 0 0 0 0.329269,-0.0494 c 2.369302,-3.21635 6.100579,-3.51368 8.762435,-1.42844 -0.329262,0.28377 -0.745212,0.47281 -1.212485,0.52731 l 3.945419,1.65264 -1.962541,-3.80063 c -0.01836,0.48117 -0.180525,0.91992 -0.446935,1.27494 -1.168039,-0.92188 -2.543476,-1.41156 -3.934282,-1.4328 z m -37.099923,4.17542 c -1.109034,0 -2.009511,0.90048 -2.009511,2.00951 v 12.71754 c 0,1.10903 0.900477,2.00951 2.009511,2.00951 h 6.423655 c 1.109035,0 2.009511,-0.90048 2.009511,-2.00951 v -3.12224 h 0.577673 v -0.26439 h 0.156403 v -0.48712 h -0.156403 v -0.67065 h 1.911214 v 0.67065 h -0.157856 v 0.48712 h 0.157856 v 0.26439 h 0.576706 v 3.12176 c 0,1.10903 0.900475,2.00951 2.009509,2.00951 h 6.421719 c 1.109034,0 2.00951,-0.90048 2.00951,-2.00951 v -12.71754 c 0,-1.10903 -0.900476,-2.00758 -2.00951,-2.00758 h -6.421719 c -1.109034,0 -2.009509,0.89855 -2.009509,2.00758 v 3.12322 h -0.576706 v 0.29004 h -0.157856 v 0.48712 h 0.157856 v 0.64498 h -1.911214 v -0.64498 h 0.156403 v -0.48712 h -0.156403 v -0.29004 H 30.44857 v -3.12274 c 0,-1.10903 -0.900476,-2.00951 -2.009511,-2.00951 z m 27.016538,0.002 c -1.109034,0 -2.009511,0.89855 -2.009511,2.00758 v 3.12322 H 46.4588 v 0.29004 h -0.157856 v 0.48712 H 46.4588 v 0.64498 h -1.911698 v -0.64498 h 0.156402 v -0.48712 h -0.156402 v -0.29004 h -0.591716 v 6.47256 h 0.591716 v -0.26439 h 0.156402 v -0.48712 h -0.156402 v -0.67064 H 46.4588 v 0.67064 h -0.157856 v 0.48712 H 46.4588 v 0.26439 h 0.563631 v 3.12176 c 0,1.10903 0.900477,2.00951 2.009511,2.00951 h 6.421717 c 1.109035,0 2.009511,-0.90048 2.009511,-2.00951 v -3.12176 h 0.591716 v -0.26439 h 0.156403 v -0.48712 h -0.156403 v -0.67064 H 59.9661 v 0.67064 h -0.157855 v 0.48712 H 59.9661 v 0.26439 h 0.562663 v 3.12176 c 0,1.10903 0.900476,2.00951 2.009511,2.00951 h 6.423655 c 1.109033,0 2.00951,-0.90048 2.00951,-2.00951 v -3.12176 h 0.590748 v -0.26439 h 0.156403 v -0.48712 h -0.156403 v -0.67064 h 1.630366 V 226.651 h -1.630366 v -0.64498 h 0.156403 v -0.48712 h -0.156403 v -0.29004 h -0.590748 v -3.12322 c 0,-1.10903 -0.900477,-2.00758 -2.00951,-2.00758 h -6.423655 c -1.109035,0 -2.009511,0.89855 -2.009511,2.00758 v 3.12322 H 59.9661 v 0.29004 h -0.157855 v 0.48712 H 59.9661 v 0.64498 h -1.911214 v -0.64498 h 0.156403 v -0.48712 h -0.156403 v -0.29004 H 57.46317 v -3.12322 c 0,-1.10903 -0.900476,-2.00758 -2.009511,-2.00758 z m -27.016538,0.47067 h 6.423655 c 0.855448,0 1.535944,0.68195 1.535944,1.53739 v 11.30023 h -1.568871 v 0.31475 h 1.568871 v 1.10256 c 0,0.85545 -0.680496,1.5374 -1.535944,1.5374 h -6.423655 c -0.855448,0 -1.53546,-0.68195 -1.53546,-1.5374 v -1.10256 h 1.94172 v -0.31475 h -1.94172 v -11.30023 c 0,-0.85544 0.680012,-1.53739 1.53546,-1.53739 z m 13.508268,0.002 h 6.421719 c 0.855448,0 1.537397,0.68002 1.537397,1.53546 v 11.30071 h -0.686139 v 0.31475 h 0.686139 v 1.10209 c 0,0.85544 -0.681949,1.53739 -1.537397,1.53739 h -6.421719 c -0.855447,0 -1.537395,-0.68195 -1.537395,-1.53739 v -1.10209 h 0.620769 v -0.31475 h -0.620769 v -11.30155 c 0,-0.85544 0.681948,-1.53546 1.537395,-1.53546 z m 13.50827,0 h 6.421717 c 0.855448,0 1.537397,0.68002 1.537397,1.53546 v 11.30071 h -0.688075 v 0.31475 h 0.688075 v 1.10209 c 0,0.85544 -0.681949,1.53739 -1.537397,1.53739 h -6.421717 c -0.855447,0 -1.537397,-0.68195 -1.537397,-1.53739 v -1.10209 h 0.618348 v -0.31475 h -0.618348 v -11.30155 c 0,-0.85544 0.68195,-1.53546 1.537397,-1.53546 z m 13.506332,0 h 6.423655 c 0.855447,0 1.535459,0.68002 1.535459,1.53546 v 11.30071 h -0.686623 v 0.31475 h 0.686623 v 1.10209 c 0,0.85544 -0.680012,1.53739 -1.535459,1.53739 h -6.423655 c -0.855448,0 -1.53546,-0.68195 -1.53546,-1.53739 v -1.10209 h 0.618348 v -0.31475 h -0.618348 v -11.30155 c 0,-0.85544 0.680012,-1.53546 1.53546,-1.53546 z m -39.978123,2.32377 v 8.35085 h 5.334646 v -1.41876 h -3.804513 v -6.93209 z m 13.153336,0 v 4.49114 c 0,0.94186 0.05017,1.65395 0.150108,2.13637 0.06892,0.32545 0.211915,0.63784 0.429018,0.93648 0.217102,0.29481 0.511524,0.53582 0.883701,0.72343 0.375623,0.18377 0.925575,0.27552 1.649251,0.27552 0.599618,0 1.085324,-0.0838 1.4575,-0.25228 0.372177,-0.1723 0.668478,-0.40237 0.889027,-0.68953 0.223995,-0.28715 0.377303,-0.63924 0.460008,-1.05657 0.0827,-0.41733 0.123961,-1.1314 0.123961,-2.14218 v -4.42238 h -1.529649 v 4.65771 c 0,0.6662 -0.02251,1.14322 -0.06731,1.43038 -0.0448,0.28715 -0.177479,0.53014 -0.398028,0.72923 -0.220549,0.19527 -0.547791,0.29296 -0.981997,0.29296 -0.427314,0 -0.765354,-0.10363 -1.013472,-0.31039 -0.24467,-0.21057 -0.399859,-0.48778 -0.465334,-0.83237 -0.0379,-0.21441 -0.05665,-0.68351 -0.05665,-1.40714 v -4.56038 z m 12.869099,0 v 8.41961 h 1.421669 v -6.62752 l 1.499143,6.62752 h 1.472995 l 1.50447,-6.62752 v 6.62752 h 1.421184 v -8.41961 h -2.294716 l -1.359688,5.49686 -1.375183,-5.49686 z m 14.285442,0 v 8.41961 h 5.763663 v -1.41876 h -4.23353 v -2.29133 h 3.804511 v -1.41828 h -3.804511 v -1.86667 h 4.088748 v -1.42457 z m -40.131621,10.51156 v 0.31474 h 2.520362 v -0.31474 z m 2.835104,0 v 0.31474 h 2.519878 v -0.31474 z m 9.350277,0 v 0.31474 h 1.258971 v -0.31474 z m 1.573713,0 v 0.31474 h 1.260908 v -0.31474 z m 1.575651,0 v 0.31474 h 1.25897 v -0.31474 z m 1.575649,0 v 0.31474 h 1.259455 v -0.31474 z m 1.574197,0 v 0.31474 h 1.260908 v -0.31474 z m 7.208575,0 v 0.31474 h 1.259455 v -0.31474 z m 1.574197,0 v 0.31474 h 1.260907 v -0.31474 z m 1.57565,0 v 0.31474 h 1.25897 v -0.31474 z m 1.573713,0 v 0.31474 h 1.260907 v -0.31474 z m 1.57565,0 v 0.31474 h 1.259455 v -0.31474 z m 7.207122,0 v 0.31474 h 1.260908 v -0.31474 z m 1.575649,0 v 0.31474 h 1.259455 v -0.31474 z m 1.574198,0 v 0.31474 h 1.260907 v -0.31474 z m 1.57565,0 v 0.31474 h 1.25897 v -0.31474 z m 1.57565,0 v 0.31474 h 1.258971 v -0.31474 z" />
    <text
       xml:space="preserve"
       transform="scale(0.26458333)"
       id="text22"
       style="font-size:96px;font-family:Arial;-inkscape-font-specification:Arial;text-align:center;letter-spacing:0px;writing-mode:lr-tb;direction:ltr;white-space:pre;shape-inside:url(#rect22);display:inline;fill:none;stroke:#000000;stroke-width:5.66929;stroke-linecap:round;stroke-dasharray:none;stroke-dashoffset:6.04724;stroke-opacity:1" />
    <path
       style="color:#000000;font-style:normal;font-variant:normal;font-weight:normal;font-stretch:normal;font-size:medium;line-height:normal;font-family:sans-serif;font-variant-ligatures:normal;font-variant-position:normal;font-variant-caps:normal;font-variant-numeric:normal;font-variant-alternates:normal;font-variant-east-asian:normal;font-feature-settings:normal;font-variation-settings:normal;text-indent:0;text-align:start;text-decoration-line:none;text-decoration-style:solid;text-decoration-color:#000000;letter-spacing:normal;word-spacing:normal;text-transform:none;writing-mode:lr-tb;direction:ltr;text-orientation:mixed;dominant-baseline:auto;baseline-shift:baseline;text-anchor:start;white-space:normal;shape-padding:0;shape-margin:0;inline-size:0;clip-rule:nonzero;display:inline;overflow:visible;visibility:visible;isolation:auto;mix-blend-mode:normal;color-interpolation:sRGB;color-interpolation-filters:linearRGB;solid-color:#000000;solid-opacity:1;vector-effect:none;fill:#000000;fill-opacity:1;fill-rule:nonzero;stroke:none;stroke-width:0.937022;stroke-linecap:butt;stroke-linejoin:miter;stroke-miterlimit:4;stroke-dasharray:1.25998, 0.314993;stroke-dashoffset:0.535488;stroke-opacity:1;-inkscape-stroke:none;color-rendering:auto;image-rendering:auto;shape-rendering:auto;text-rendering:auto;enable-background:accumulate;stop-color:#000000"
       d="M 21.172569,218.40239 H 31.02233"
       id="path340" />
    <path
       style="color:#000000;font-style:normal;font-variant:normal;font-weight:normal;font-stretch:normal;font-size:medium;line-height:normal;font-family:sans-serif;font-variant-ligatures:normal;font-variant-position:normal;font-variant-caps:normal;font-variant-numeric:normal;font-variant-alternates:normal;font-variant-east-asian:normal;font-feature-settings:normal;font-variation-settings:normal;text-indent:0;text-align:start;text-decoration-line:none;text-decoration-style:solid;text-decoration-color:#000000;letter-spacing:normal;word-spacing:normal;text-transform:none;writing-mode:lr-tb;direction:ltr;text-orientation:mixed;dominant-baseline:auto;baseline-shift:baseline;text-anchor:start;white-space:normal;shape-padding:0;shape-margin:0;inline-size:0;clip-rule:nonzero;display:inline;overflow:visible;visibility:visible;isolation:auto;mix-blend-mode:normal;color-interpolation:sRGB;color-interpolation-filters:linearRGB;solid-color:#000000;solid-opacity:1;vector-effect:none;fill:#000000;fill-opacity:1;fill-rule:nonzero;stroke:none;stroke-width:0.937022;stroke-linecap:butt;stroke-linejoin:miter;stroke-miterlimit:4;stroke-dasharray:1.25998, 0.314993;stroke-dashoffset:0.535488;stroke-opacity:1;-inkscape-stroke:none;color-rendering:auto;image-rendering:auto;shape-rendering:auto;text-rendering:auto;enable-background:accumulate;stop-color:#000000"
       d="M 21.172569,220.37459 H 31.02233"
       id="path342" />
  </g>
</svg>
